<mxfile host="app.diagrams.net" modified="2024-03-23T04:20:40.764Z" agent="Mozilla/5.0 (Windows NT 10.0; Win64; x64) AppleWebKit/537.36 (KHTML, like Gecko) Chrome/122.0.0.0 Safari/537.36" version="24.0.8" etag="q4V1K9WBi6CvGL7M0YfT" type="github">
  <diagram name="Page-1" id="g-cUxJgibja3q6ymD6zs">
    <mxGraphModel>
      <root>
        <mxCell id="0" />
        <mxCell id="1" parent="0" />
      </root>
    </mxGraphModel>
  </diagram>
</mxfile>
